<svg xmlns="http://www.w3.org/2000/svg" viewBox="0 0 512 512">
  <defs>
    <linearGradient id="g" x1="0" y1="0" x2="1" y2="1">
      <stop offset="0" stop-color="#16a34a"/>
      <stop offset="0.5" stop-color="#f59e0b"/>
      <stop offset="1" stop-color="#dc2626"/>
    </linearGradient>
  </defs>
  <rect width="512" height="512" rx="120" fill="#0f172a"/>
  <circle cx="256" cy="256" r="172" fill="url(#g)" opacity="0.18"/>
  <path
    d="M192 312c24 24 48 36 64 36s40-12 64-36c18-18 34-30 52-36 14-4 28-4 44 0-4 18-12 34-24 48-32 36-72 56-136 56s-104-20-136-56c-12-14-20-30-24-48 16-4 30-4 44 0 18 6 34 18 52 36z"
    fill="#ffffff"/>
  <path
    d="M164 212c22-22 46-32 72-32 22 0 44 8 64 24 20-16 42-24 64-24 26 0 50 10 72 32"
    fill="none"
    stroke="#ffffff"
    stroke-width="20"
    stroke-linecap="round"
  />
  <text x="256" y="248" text-anchor="middle" font-family="Inter, system-ui, sans-serif" font-size="54" font-weight="800" fill="#ffffff">
    SC
  </text>
</svg>

